<svg xmlns="http://www.w3.org/2000/svg" viewBox="0 0 196 196" width="196" height="196">
  <path d="M 89 2 L 88 3 L 88 5 L 87 6 L 87 8 L 86 9 L 86 11 L 84 13 L 84 14 L 81 17 L 81 18 L 79 20 L 79 21 L 69 31 L 68 31 L 65 34 L 64 34 L 61 37 L 60 37 L 59 38 L 58 38 L 57 39 L 55 39 L 54 40 L 52 40 L 51 41 L 50 41 L 50 48 L 49 49 L 48 49 L 47 50 L 41 50 L 41 51 L 40 52 L 40 55 L 39 56 L 39 57 L 38 58 L 38 59 L 37 60 L 37 61 L 35 63 L 35 64 L 32 67 L 32 68 L 20 80 L 19 80 L 17 82 L 16 82 L 14 84 L 13 84 L 11 86 L 10 86 L 9 87 L 7 87 L 6 88 L 4 88 L 3 89 L 2 89 L 2 106 L 3 107 L 4 107 L 5 108 L 7 108 L 8 109 L 9 109 L 10 110 L 11 110 L 12 111 L 13 111 L 14 112 L 15 112 L 17 114 L 18 114 L 25 121 L 26 121 L 27 122 L 27 123 L 33 129 L 33 130 L 36 133 L 36 134 L 37 135 L 37 136 L 38 137 L 38 138 L 39 139 L 39 140 L 40 141 L 40 143 L 41 144 L 41 145 L 42 146 L 49 146 L 50 147 L 50 154 L 51 155 L 53 155 L 54 156 L 56 156 L 57 157 L 58 157 L 59 158 L 60 158 L 62 160 L 63 160 L 67 164 L 68 164 L 80 176 L 80 177 L 82 179 L 82 180 L 84 182 L 84 183 L 86 185 L 86 186 L 87 187 L 87 190 L 88 191 L 88 192 L 89 193 L 107 193 L 107 192 L 108 191 L 108 188 L 109 187 L 109 186 L 110 185 L 110 183 L 113 180 L 113 179 L 115 177 L 115 176 L 128 163 L 129 163 L 132 160 L 133 160 L 135 158 L 136 158 L 137 157 L 138 157 L 139 156 L 140 156 L 141 155 L 144 155 L 145 154 L 145 146 L 146 145 L 154 145 L 154 144 L 155 143 L 155 141 L 156 140 L 156 139 L 157 138 L 157 137 L 158 136 L 158 135 L 159 134 L 159 133 L 161 131 L 161 130 L 165 126 L 165 125 L 172 118 L 173 118 L 177 114 L 178 114 L 180 112 L 181 112 L 183 110 L 184 110 L 185 109 L 186 109 L 187 108 L 189 108 L 190 107 L 192 107 L 193 106 L 193 89 L 192 88 L 190 88 L 189 87 L 188 87 L 187 86 L 186 86 L 185 85 L 184 85 L 183 84 L 182 84 L 181 83 L 180 83 L 178 81 L 177 81 L 172 76 L 171 76 L 166 71 L 166 70 L 162 66 L 162 65 L 160 63 L 160 62 L 158 60 L 158 59 L 157 58 L 157 57 L 156 56 L 156 55 L 155 54 L 155 51 L 153 49 L 146 49 L 145 48 L 145 41 L 144 40 L 142 40 L 141 39 L 139 39 L 138 38 L 137 38 L 135 36 L 134 36 L 133 35 L 132 35 L 129 32 L 128 32 L 115 19 L 115 18 L 113 16 L 113 15 L 111 13 L 111 12 L 110 11 L 110 10 L 109 9 L 109 7 L 108 6 L 108 4 L 107 3 L 107 2 Z M 97 123 L 98 123 L 99 124 L 99 125 L 103 129 L 103 130 L 112 139 L 113 139 L 117 143 L 118 143 L 120 145 L 117 148 L 116 148 L 114 150 L 113 150 L 112 151 L 112 152 L 111 153 L 110 153 L 104 159 L 104 160 L 100 164 L 100 165 L 98 167 L 97 167 L 95 165 L 95 164 L 93 162 L 93 161 L 82 150 L 81 150 L 79 148 L 78 148 L 76 146 L 76 144 L 77 143 L 78 143 L 82 139 L 83 139 L 93 129 L 93 128 L 95 126 L 95 125 Z M 49 77 L 50 76 L 51 76 L 53 78 L 53 79 L 56 82 L 56 83 L 65 92 L 66 92 L 70 96 L 71 96 L 73 98 L 72 99 L 71 99 L 67 103 L 66 103 L 56 113 L 56 114 L 52 118 L 52 119 L 51 120 L 50 120 L 49 119 L 49 118 L 45 114 L 45 113 L 34 102 L 33 102 L 30 99 L 29 99 L 28 98 L 30 96 L 31 96 L 36 91 L 37 91 L 44 84 L 44 83 L 49 78 Z M 145 75 L 146 76 L 146 77 L 150 81 L 150 82 L 161 93 L 162 93 L 165 96 L 166 96 L 167 97 L 167 98 L 166 99 L 165 99 L 162 102 L 161 102 L 149 114 L 149 115 L 146 118 L 146 119 L 145 120 L 143 118 L 143 117 L 138 112 L 138 111 L 132 105 L 131 105 L 125 99 L 124 99 L 123 98 L 123 97 L 125 95 L 126 95 L 130 91 L 131 91 L 131 90 L 133 88 L 134 88 L 136 86 L 136 85 L 142 79 L 142 78 Z M 98 28 L 100 30 L 100 31 L 103 34 L 103 35 L 112 44 L 113 44 L 117 48 L 118 48 L 120 50 L 120 51 L 119 52 L 118 52 L 115 55 L 114 55 L 102 67 L 102 68 L 98 72 L 97 72 L 96 71 L 96 70 L 93 67 L 93 66 L 83 56 L 82 56 L 78 52 L 77 52 L 76 51 L 76 50 L 79 47 L 80 47 L 83 44 L 84 44 L 85 43 L 85 42 L 95 32 L 95 31 Z" fill="#1d7068" fill-rule="evenodd"/>
</svg>